<svg width="2000px" height="1055px"
 viewBox="0.00 0.00 730.15 385.21" xmlns="http://www.w3.org/2000/svg" xmlns:xlink="http://www.w3.org/1999/xlink">
<g id="graph0" class="graph" transform="scale(1.0 1.0) rotate(0) translate(4 381.21)">
<title>ContextMapGraph</title>
<polygon fill="white" stroke="transparent" points="-4,4 -4,-381.21 726.15,-381.21 726.15,4 -4,4"/>
<!-- GestionAlquilerContext -->
<g id="node1" class="node">
<title>GestionAlquilerContext</title>
<polygon fill="none" stroke="black" stroke-width="2" points="618.7,-148.85 628.15,-150.19 637.33,-151.63 646.19,-153.16 654.71,-154.78 662.84,-156.48 670.55,-158.25 677.81,-160.1 684.6,-162 690.88,-163.97 696.63,-165.99 701.82,-168.05 706.45,-170.15 710.5,-172.28 713.94,-174.44 716.78,-176.62 719.01,-178.81 720.62,-181.02 721.62,-183.22 722,-185.43 721.77,-187.63 720.94,-189.82 719.53,-191.99 717.54,-194.13 714.99,-196.26 711.91,-198.35 708.31,-200.4 704.21,-202.42 699.65,-204.39 694.64,-206.32 689.22,-208.19 683.4,-210.01 677.23,-211.77 670.73,-213.47 663.93,-215.11 656.87,-216.68 649.57,-218.18 642.06,-219.6 634.37,-220.95 626.54,-222.22 618.58,-223.4 610.54,-224.5 602.43,-225.52 594.27,-226.44 586.1,-227.28 577.94,-228.01 569.8,-228.66 561.71,-229.2 553.68,-229.64 545.73,-229.99 537.88,-230.22 530.13,-230.35 522.5,-230.38 515.01,-230.3 507.66,-230.1 500.45,-229.8 493.4,-229.38 486.52,-228.86 479.8,-228.22 473.25,-227.48 466.89,-226.62 460.7,-225.65 454.69,-224.58 448.88,-223.39 443.25,-222.1 437.82,-220.71 432.59,-219.22 427.56,-217.63 422.74,-215.95 418.13,-214.17 413.74,-212.31 409.57,-210.37 405.64,-208.35 401.94,-206.25 398.5,-204.09 395.31,-201.87 392.39,-199.6 389.75,-197.28 387.39,-194.92 385.34,-192.52 383.61,-190.1 382.2,-187.65 381.14,-185.2 380.42,-182.75 380.08,-180.29 380.11,-177.86 380.54,-175.44 381.37,-173.05 382.61,-170.7 384.29,-168.39 386.39,-166.14 388.94,-163.94 391.93,-161.82 395.38,-159.77 399.29,-157.81 403.65,-155.93 408.48,-154.15 413.75,-152.47 419.48,-150.9 425.64,-149.44 432.24,-148.1 439.25,-146.88 446.67,-145.78 454.47,-144.82 462.64,-143.99 471.16,-143.29 479.99,-142.72 489.11,-142.3 498.5,-142.01 508.12,-141.86 517.93,-141.85 527.91,-141.97 538.02,-142.23 548.22,-142.62 558.46,-143.14 568.71,-143.79 578.94,-144.57 589.09,-145.47 599.13,-146.48 609.01,-147.61 618.7,-148.85"/>
<text text-anchor="middle" x="540.3" y="-183.65" font-family="sans-serif" font-size="16.00">GestionAlquilerContext</text>
</g>
<!-- GestionClienteContext -->
<g id="node2" class="node">
<title>GestionClienteContext</title>
<polygon fill="none" stroke="black" stroke-width="2" points="628.59,-9.47 637.34,-11.03 645.79,-12.68 653.92,-14.42 661.67,-16.24 669.03,-18.13 675.95,-20.08 682.42,-22.09 688.4,-24.16 693.87,-26.27 698.82,-28.42 703.21,-30.6 707.04,-32.81 710.3,-35.04 712.96,-37.28 715.03,-39.52 716.5,-41.77 717.36,-44.01 717.63,-46.24 717.3,-48.45 716.39,-50.64 714.9,-52.81 712.84,-54.94 710.23,-57.04 707.09,-59.1 703.44,-61.12 699.29,-63.09 694.68,-65.01 689.62,-66.87 684.16,-68.68 678.3,-70.42 672.08,-72.1 665.53,-73.72 658.69,-75.27 651.57,-76.74 644.22,-78.14 636.66,-79.47 628.92,-80.71 621.04,-81.88 613.03,-82.96 604.94,-83.96 596.78,-84.87 588.58,-85.7 580.38,-86.43 572.18,-87.07 564.03,-87.62 555.92,-88.07 547.9,-88.42 539.96,-88.67 532.14,-88.83 524.44,-88.88 516.88,-88.83 509.47,-88.67 502.22,-88.41 495.14,-88.05 488.25,-87.58 481.54,-87 475.02,-86.31 468.7,-85.52 462.58,-84.62 456.67,-83.61 450.97,-82.5 445.48,-81.28 440.21,-79.96 435.16,-78.54 430.33,-77.02 425.72,-75.41 421.34,-73.7 417.19,-71.91 413.28,-70.03 409.6,-68.06 406.17,-66.02 402.99,-63.91 400.06,-61.73 397.4,-59.49 395.01,-57.2 392.89,-54.86 391.06,-52.48 389.52,-50.06 388.29,-47.62 387.37,-45.16 386.77,-42.68 386.51,-40.21 386.6,-37.74 387.04,-35.28 387.84,-32.84 389.02,-30.44 390.58,-28.07 392.53,-25.75 394.88,-23.48 397.63,-21.28 400.8,-19.15 404.38,-17.1 408.37,-15.13 412.79,-13.26 417.62,-11.49 422.86,-9.82 428.51,-8.27 434.56,-6.83 441.01,-5.52 447.83,-4.33 455.03,-3.28 462.57,-2.36 470.45,-1.58 478.65,-0.94 487.13,-0.44 495.88,-0.08 504.87,0.13 514.08,0.19 523.46,0.12 532.99,-0.1 542.64,-0.46 552.37,-0.95 562.14,-1.58 571.92,-2.35 581.67,-3.24 591.34,-4.26 600.91,-5.39 610.34,-6.64 619.57,-8 628.59,-9.47"/>
<text text-anchor="middle" x="540.3" y="-42.39" font-family="sans-serif" font-size="16.00">GestionClienteContext</text>
</g>
<!-- GestionAlquilerContext&#45;&gt;GestionClienteContext -->
<g id="edge1" class="edge">
<title>GestionAlquilerContext&#45;&gt;GestionClienteContext</title>
<path fill="none" stroke="black" stroke-width="2" d="M540.3,-142C540.3,-124.97 540.3,-105.61 540.3,-88.85"/>
<text text-anchor="middle" x="582.3" y="-113.79" font-family="sans-serif" font-size="12.00">Shared Kernel</text>
</g>
<!-- SeguridadContext -->
<g id="node3" class="node">
<title>SeguridadContext</title>
<polygon fill="none" stroke="black" stroke-width="2" points="139.69,-4.33 148.04,-3.38 156.45,-2.55 164.9,-1.85 173.34,-1.28 181.75,-0.84 190.1,-0.53 198.34,-0.36 206.46,-0.33 214.43,-0.43 222.21,-0.68 229.78,-1.06 237.11,-1.59 244.19,-2.25 250.99,-3.04 257.5,-3.98 263.69,-5.04 269.56,-6.23 275.09,-7.54 280.27,-8.97 285.09,-10.52 289.54,-12.18 293.62,-13.95 297.33,-15.81 300.67,-17.76 303.63,-19.8 306.22,-21.91 308.45,-24.1 310.31,-26.35 311.82,-28.65 312.97,-31.01 313.79,-33.4 314.27,-35.82 314.43,-38.27 314.28,-40.73 313.82,-43.19 313.07,-45.66 312.04,-48.11 310.73,-50.55 309.16,-52.96 307.35,-55.34 305.29,-57.68 302.99,-59.98 300.47,-62.22 297.74,-64.4 294.79,-66.51 291.65,-68.56 288.31,-70.53 284.77,-72.41 281.06,-74.22 277.16,-75.93 273.08,-77.55 268.84,-79.07 264.42,-80.49 259.84,-81.81 255.09,-83.02 250.18,-84.13 245.12,-85.13 239.9,-86.02 234.52,-86.8 229,-87.46 223.33,-88.02 217.53,-88.47 211.58,-88.81 205.51,-89.04 199.32,-89.16 193.01,-89.17 186.6,-89.07 180.09,-88.87 173.49,-88.57 166.83,-88.16 160.11,-87.65 153.34,-87.05 146.55,-86.35 139.75,-85.55 132.95,-84.66 126.19,-83.68 119.48,-82.61 112.83,-81.46 106.29,-80.23 99.86,-78.91 93.57,-77.52 87.45,-76.05 81.52,-74.51 75.81,-72.9 70.34,-71.23 65.15,-69.49 60.24,-67.69 55.65,-65.84 51.41,-63.93 47.52,-61.98 44.03,-59.97 40.94,-57.93 38.28,-55.85 36.06,-53.73 34.3,-51.59 33.01,-49.42 32.21,-47.23 31.91,-45.03 32.1,-42.81 32.81,-40.59 34.02,-38.38 35.74,-36.16 37.98,-33.97 40.71,-31.78 43.94,-29.63 47.66,-27.5 51.85,-25.41 56.49,-23.36 61.58,-21.36 67.09,-19.41 73,-17.53 79.28,-15.71 85.91,-13.97 92.87,-12.31 100.12,-10.73 107.63,-9.25 115.38,-7.86 123.33,-6.57 131.44,-5.39 139.69,-4.33"/>
<text text-anchor="middle" x="182.3" y="-42.39" font-family="sans-serif" font-size="16.00">SeguridadContext</text>
</g>
<!-- GestionAlquilerContext&#45;&gt;SeguridadContext -->
<g id="edge2" class="edge">
<title>GestionAlquilerContext&#45;&gt;SeguridadContext</title>
<path fill="none" stroke="black" stroke-width="2" d="M438.67,-146.92C384.2,-125.73 317.89,-99.94 266.36,-79.89"/>
<text text-anchor="middle" x="405.8" y="-113.79" font-family="sans-serif" font-size="12.00">Partnership</text>
</g>
<!-- GestionPagosContext -->
<g id="node4" class="node">
<title>GestionPagosContext</title>
<polygon fill="none" stroke="black" stroke-width="2" points="252.76,-150.41 261.25,-151.92 269.46,-153.53 277.35,-155.22 284.9,-157 292.07,-158.84 298.83,-160.76 305.16,-162.74 311.02,-164.77 316.4,-166.85 321.27,-168.97 325.62,-171.12 329.42,-173.3 332.68,-175.51 335.37,-177.73 337.49,-179.95 339.03,-182.19 340,-184.42 340.39,-186.64 340.21,-188.84 339.47,-191.03 338.16,-193.2 336.32,-195.34 333.95,-197.45 331.06,-199.51 327.68,-201.54 323.82,-203.53 319.51,-205.46 314.78,-207.34 309.64,-209.17 304.13,-210.94 298.27,-212.64 292.08,-214.29 285.61,-215.86 278.88,-217.37 271.91,-218.8 264.74,-220.16 257.39,-221.44 249.9,-222.64 242.28,-223.75 234.58,-224.79 226.81,-225.74 219,-226.6 211.17,-227.37 203.35,-228.05 195.56,-228.63 187.82,-229.12 180.14,-229.51 172.54,-229.8 165.05,-229.99 157.67,-230.08 150.41,-230.07 143.3,-229.95 136.33,-229.72 129.52,-229.39 122.88,-228.96 116.4,-228.41 110.11,-227.76 104,-227 98.08,-226.13 92.35,-225.15 86.81,-224.07 81.48,-222.89 76.34,-221.6 71.41,-220.21 66.68,-218.71 62.17,-217.13 57.86,-215.45 53.77,-213.68 49.91,-211.82 46.26,-209.88 42.85,-207.86 39.67,-205.77 36.73,-203.62 34.04,-201.4 31.6,-199.12 29.43,-196.8 27.53,-194.43 25.91,-192.03 24.58,-189.6 23.55,-187.15 22.83,-184.69 22.43,-182.22 22.36,-179.76 22.64,-177.3 23.26,-174.87 24.24,-172.47 25.6,-170.1 27.33,-167.78 29.44,-165.51 31.95,-163.3 34.86,-161.16 38.17,-159.09 41.88,-157.12 46,-155.23 50.53,-153.44 55.46,-151.75 60.78,-150.17 66.5,-148.71 72.6,-147.37 79.08,-146.16 85.91,-145.07 93.1,-144.12 100.61,-143.3 108.43,-142.63 116.53,-142.09 124.91,-141.69 133.52,-141.44 142.34,-141.33 151.35,-141.36 160.5,-141.53 169.78,-141.84 179.14,-142.29 188.55,-142.87 197.97,-143.58 207.38,-144.43 216.72,-145.39 225.97,-146.48 235.08,-147.68 244.03,-148.99 252.76,-150.41"/>
<text text-anchor="middle" x="170.3" y="-183.65" font-family="sans-serif" font-size="16.00">GestionPagosContext</text>
</g>
<!-- GestionPagosContext&#45;&gt;SeguridadContext -->
<g id="edge3" class="edge">
<title>GestionPagosContext&#45;&gt;SeguridadContext</title>
<path fill="none" stroke="black" stroke-width="2" d="M174.13,-142C175.59,-124.97 177.26,-105.61 178.71,-88.85"/>
<text text-anchor="middle" x="251.8" y="-113.79" font-family="sans-serif" font-size="12.00"> &#160;&#160;&#160;&#160;&#160;&#160;&#160;&#160;&#160;&#160;&#160;&#160;&#160;&#160;&#160;&#160;&#160;&#160;&#160;&#160;&#160;&#160;&#160;&#160;&#160;&#160;&#160;&#160;&#160;&#160;&#160;&#160;&#160;&#160;&#160;&#160;&#160;&#160;&#160;</text>
<polygon fill="white" stroke="transparent" points="159.71,-78.85 159.71,-97.85 175.71,-97.85 175.71,-78.85 159.71,-78.85"/>
<polyline fill="none" stroke="black" points="175.71,-78.85 175.71,-97.85 "/>
<text text-anchor="start" x="162.71" y="-85.25" font-family="sans-serif" font-size="12.00">D</text>
<polygon fill="white" stroke="transparent" points="175.71,-78.85 175.71,-97.85 197.71,-97.85 197.71,-78.85 175.71,-78.85"/>
<polygon fill="none" stroke="black" points="175.71,-78.85 175.71,-97.85 197.71,-97.85 197.71,-78.85 175.71,-78.85"/>
<text text-anchor="start" x="178.71" y="-85.25" font-family="sans-serif" font-size="12.00">CF</text>
<polygon fill="white" stroke="transparent" points="156.13,-132 156.13,-151 172.13,-151 172.13,-132 156.13,-132"/>
<polyline fill="none" stroke="black" points="172.13,-132 172.13,-151 "/>
<text text-anchor="start" x="159.13" y="-138.4" font-family="sans-serif" font-size="12.00">U</text>
<polygon fill="white" stroke="transparent" points="172.13,-132 172.13,-151 193.13,-151 193.13,-132 172.13,-132"/>
<polygon fill="none" stroke="black" points="172.13,-132 172.13,-151 193.13,-151 193.13,-132 172.13,-132"/>
<text text-anchor="start" x="175.13" y="-138.4" font-family="sans-serif" font-size="12.00">PL</text>
</g>
<!-- GestionVehiculoContext -->
<g id="node5" class="node">
<title>GestionVehiculoContext</title>
<polygon fill="none" stroke="black" stroke-width="2" points="375.28,-321.77 377.15,-318.95 379.46,-316.17 382.2,-313.44 385.38,-310.78 388.97,-308.18 392.97,-305.67 397.36,-303.25 402.14,-300.94 407.28,-298.74 412.78,-296.65 418.61,-294.69 424.77,-292.87 431.23,-291.18 437.97,-289.64 444.99,-288.25 452.25,-287 459.74,-285.92 467.44,-284.98 475.33,-284.21 483.38,-283.59 491.59,-283.13 499.91,-282.82 508.34,-282.66 516.85,-282.66 525.42,-282.8 534.02,-283.09 542.64,-283.51 551.25,-284.07 559.83,-284.75 568.36,-285.55 576.81,-286.47 585.17,-287.5 593.4,-288.63 601.5,-289.86 609.43,-291.18 617.19,-292.58 624.74,-294.05 632.07,-295.59 639.16,-297.2 645.99,-298.86 652.55,-300.57 658.8,-302.32 664.75,-304.11 670.36,-305.94 675.64,-307.79 680.55,-309.67 685.09,-311.56 689.25,-313.47 693.01,-315.39 696.36,-317.31 699.3,-319.25 701.81,-321.18 703.88,-323.11 705.51,-325.05 706.7,-326.97 707.43,-328.9 707.71,-330.81 707.53,-332.72 706.89,-334.62 705.8,-336.5 704.25,-338.37 702.25,-340.23 699.8,-342.08 696.91,-343.91 693.58,-345.72 689.82,-347.51 685.64,-349.28 681.06,-351.03 676.08,-352.75 670.71,-354.44 664.98,-356.1 658.89,-357.72 652.46,-359.31 645.72,-360.85 638.67,-362.34 631.34,-363.79 623.75,-365.17 615.92,-366.5 607.87,-367.76 599.62,-368.95 591.2,-370.06 582.63,-371.08 573.94,-372.02 565.15,-372.86 556.28,-373.6 547.37,-374.24 538.44,-374.76 529.5,-375.17 520.6,-375.45 511.75,-375.61 502.98,-375.64 494.32,-375.53 485.78,-375.28 477.41,-374.89 469.21,-374.35 461.21,-373.67 453.44,-372.85 445.92,-371.87 438.67,-370.75 431.71,-369.48 425.05,-368.07 418.73,-366.52 412.75,-364.83 407.13,-363.01 401.9,-361.05 397.05,-358.98 392.61,-356.79 388.58,-354.48 384.98,-352.08 381.82,-349.58 379.1,-347.01 376.84,-344.35 375.03,-341.64 373.68,-338.87 372.79,-336.05 372.36,-333.21 372.4,-330.35 372.9,-327.48 373.86,-324.62 375.28,-321.77"/>
<text text-anchor="middle" x="540.3" y="-326.06" font-family="sans-serif" font-size="16.00">GestionVehiculoContext</text>
</g>
<!-- GestionVehiculoContext&#45;&gt;GestionAlquilerContext -->
<g id="edge4" class="edge">
<title>GestionVehiculoContext&#45;&gt;GestionAlquilerContext</title>
<path fill="none" stroke="black" stroke-width="2" d="M540.3,-283.27C540.3,-266.3 540.3,-247.12 540.3,-230.48"/>
<text text-anchor="middle" x="615.8" y="-254.91" font-family="sans-serif" font-size="12.00"> &#160;&#160;&#160;&#160;&#160;&#160;&#160;&#160;&#160;&#160;&#160;&#160;&#160;&#160;&#160;&#160;&#160;&#160;&#160;&#160;&#160;&#160;&#160;&#160;&#160;&#160;&#160;&#160;&#160;&#160;&#160;&#160;&#160;&#160;&#160;&#160;&#160;&#160;&#160;</text>
<polygon fill="white" stroke="transparent" points="533.3,-221.48 533.3,-238.48 547.3,-238.48 547.3,-221.48 533.3,-221.48"/>
<text text-anchor="start" x="535.3" y="-226.88" font-family="sans-serif" font-size="12.00">D</text>
<polygon fill="white" stroke="transparent" points="533.3,-274.27 533.3,-291.27 547.3,-291.27 547.3,-274.27 533.3,-274.27"/>
<text text-anchor="start" x="535.3" y="-279.67" font-family="sans-serif" font-size="12.00">U</text>
</g>
</g>
</svg>
